<svg width="229" height="30" viewBox="0 0 229 30" fill="none" xmlns="http://www.w3.org/2000/svg">
<path d="M14.1311 21.4219V22.96H2.13398V21.4219H14.1311ZM2.67597 1.6319V22.96H0.874214V1.6319H2.67597ZM12.6369 11.1973V12.7354H2.13398V11.1973H12.6369ZM14.0578 1.6319V3.18463H2.13398V1.6319H14.0578ZM18.8326 7.11041L23.11 13.5118L27.4019 7.11041H29.482L24.1061 14.8741L29.7018 22.96H27.651L23.1246 16.2657L18.6129 22.96H16.5621L22.1578 14.8741L16.7818 7.11041H18.8326ZM35.0918 10.1573V29.0538H33.334V7.11041H34.9746L35.0918 10.1573ZM46.1074 14.8887V15.1964C46.1074 16.378 45.9707 17.462 45.6973 18.4483C45.4238 19.4346 45.0283 20.2891 44.5107 21.0118C44.0029 21.7247 43.373 22.2764 42.6211 22.6671C41.8691 23.0577 41.0146 23.253 40.0576 23.253C39.1103 23.253 38.2656 23.1065 37.5234 22.8135C36.7812 22.5206 36.1416 22.1055 35.6045 21.5684C35.0771 21.0215 34.6523 20.3868 34.3301 19.6641C34.0176 18.9317 33.7978 18.1309 33.6709 17.2618V13.2042C33.8174 12.2471 34.0566 11.378 34.3887 10.5967C34.7207 9.81549 35.1455 9.14166 35.6631 8.57526C36.1904 8.00885 36.8154 7.57428 37.5381 7.27155C38.2607 6.96881 39.0859 6.81744 40.0137 6.81744C40.9805 6.81744 41.8398 7.00787 42.5918 7.38873C43.3535 7.75983 43.9932 8.30182 44.5107 9.01471C45.0381 9.71783 45.4336 10.5674 45.6973 11.5635C45.9707 12.5499 46.1074 13.6583 46.1074 14.8887ZM44.3496 15.1964V14.8887C44.3496 13.961 44.2519 13.1016 44.0566 12.3106C43.8711 11.5196 43.583 10.8311 43.1924 10.2452C42.8115 9.64948 42.3232 9.18561 41.7275 8.85358C41.1416 8.52155 40.4434 8.35553 39.6328 8.35553C38.793 8.35553 38.0752 8.49713 37.4795 8.78033C36.8936 9.05377 36.4053 9.41998 36.0146 9.87897C35.624 10.3282 35.3164 10.8214 35.0918 11.3585C34.8672 11.8956 34.7012 12.4229 34.5937 12.9405V17.6133C34.7793 18.3555 35.0771 19.044 35.4873 19.6788C35.8975 20.3038 36.4443 20.8067 37.1279 21.1876C37.8213 21.5587 38.666 21.7442 39.6621 21.7442C40.4629 21.7442 41.1562 21.5782 41.7422 21.2462C42.3281 20.9141 42.8115 20.4503 43.1924 19.8546C43.583 19.2589 43.8711 18.5655 44.0566 17.7745C44.2519 16.9835 44.3496 16.1241 44.3496 15.1964ZM52.5521 0.460022V22.96H50.809V0.460022H52.5521ZM56.9754 15.2842V14.8008C56.9754 13.6485 57.1414 12.584 57.4734 11.6075C57.8055 10.6309 58.2791 9.78619 58.8943 9.0733C59.5193 8.36041 60.2664 7.80865 61.1355 7.41803C62.0047 7.01764 62.9715 6.81744 64.0359 6.81744C65.1102 6.81744 66.0818 7.01764 66.951 7.41803C67.8201 7.80865 68.5672 8.36041 69.1922 9.0733C69.8172 9.78619 70.2957 10.6309 70.6277 11.6075C70.9598 12.584 71.1258 13.6485 71.1258 14.8008V15.2842C71.1258 16.4366 70.9598 17.501 70.6277 18.4776C70.2957 19.4444 69.8172 20.2842 69.1922 20.9971C68.577 21.71 67.8348 22.2667 66.9656 22.6671C66.0965 23.0577 65.1297 23.253 64.0652 23.253C62.991 23.253 62.0193 23.0577 61.1502 22.6671C60.2811 22.2667 59.534 21.71 58.909 20.9971C58.284 20.2842 57.8055 19.4444 57.4734 18.4776C57.1414 17.501 56.9754 16.4366 56.9754 15.2842ZM58.7186 14.8008V15.2842C58.7186 16.1534 58.8357 16.9786 59.0701 17.7598C59.3045 18.5313 59.6463 19.2198 60.0955 19.8253C60.5447 20.421 61.1014 20.8897 61.7654 21.2315C62.4295 21.5733 63.1961 21.7442 64.0652 21.7442C64.9246 21.7442 65.6814 21.5733 66.3357 21.2315C66.9998 20.8897 67.5564 20.421 68.0057 19.8253C68.4549 19.2198 68.7918 18.5313 69.0164 17.7598C69.2508 16.9786 69.368 16.1534 69.368 15.2842V14.8008C69.368 13.9415 69.2508 13.126 69.0164 12.3546C68.7918 11.5831 68.45 10.8946 67.991 10.2891C67.5418 9.68365 66.9852 9.20514 66.3211 8.85358C65.657 8.50201 64.8953 8.32623 64.0359 8.32623C63.1766 8.32623 62.4148 8.50201 61.7508 8.85358C61.0965 9.20514 60.5398 9.68365 60.0809 10.2891C59.6316 10.8946 59.2898 11.5831 59.0555 12.3546C58.8309 13.126 58.7186 13.9415 58.7186 14.8008ZM77.1018 9.73248V22.96H75.3586V7.11041H77.0578L77.1018 9.73248ZM82.7121 6.99323L82.6682 8.60455C82.4728 8.57526 82.2824 8.55084 82.0969 8.53131C81.9113 8.51178 81.7111 8.50201 81.4963 8.50201C80.7346 8.50201 80.0656 8.64362 79.4894 8.92682C78.923 9.20026 78.4445 9.586 78.0539 10.084C77.6633 10.5723 77.3654 11.1485 77.1603 11.8126C76.9553 12.4669 76.8381 13.17 76.8088 13.9219L76.1643 14.171C76.1643 13.1358 76.2717 12.1739 76.4865 11.2852C76.7014 10.3965 77.0285 9.62018 77.468 8.95612C77.9172 8.28229 78.4787 7.75983 79.1525 7.38873C79.8361 7.00787 80.6369 6.81744 81.5549 6.81744C81.7795 6.81744 81.9992 6.83698 82.2141 6.87604C82.4387 6.90533 82.6047 6.9444 82.7121 6.99323ZM91.8961 23.253C90.8609 23.253 89.9088 23.0626 89.0396 22.6817C88.1803 22.3008 87.4283 21.7637 86.7838 21.0704C86.149 20.377 85.6559 19.5567 85.3043 18.6094C84.9625 17.6524 84.7916 16.6075 84.7916 15.4747V14.8448C84.7916 13.6241 84.9723 12.5206 85.3336 11.5342C85.6949 10.5479 86.193 9.70319 86.8277 9.00006C87.4625 8.29694 88.1852 7.75983 88.9957 7.38873C89.816 7.00787 90.6754 6.81744 91.5738 6.81744C92.5797 6.81744 93.4732 6.99811 94.2545 7.35944C95.0357 7.711 95.69 8.21393 96.2174 8.86823C96.7545 9.51276 97.1598 10.2794 97.4332 11.168C97.7066 12.0469 97.8434 13.0186 97.8434 14.0831V15.1524H85.8463V13.6583H96.1002V13.4532C96.0807 12.5645 95.9 11.7344 95.5582 10.963C95.2262 10.1817 94.7281 9.54694 94.0641 9.05865C93.4 8.57037 92.5699 8.32623 91.5738 8.32623C90.8316 8.32623 90.148 8.48248 89.523 8.79498C88.9078 9.10748 88.3756 9.5567 87.9264 10.1426C87.4869 10.7188 87.1451 11.4073 86.901 12.2081C86.6666 12.9991 86.5494 13.878 86.5494 14.8448V15.4747C86.5494 16.3536 86.6764 17.1739 86.9303 17.9356C87.1939 18.6876 87.565 19.3516 88.0435 19.9278C88.5318 20.504 89.108 20.9532 89.7721 21.2755C90.4361 21.5977 91.1685 21.7589 91.9693 21.7589C92.9068 21.7589 93.7369 21.588 94.4596 21.2462C95.1822 20.8946 95.8316 20.3428 96.4078 19.5909L97.5064 20.4405C97.1646 20.9483 96.735 21.4171 96.2174 21.8467C95.7096 22.2764 95.0992 22.6182 94.3863 22.8721C93.6734 23.126 92.8434 23.253 91.8961 23.253ZM103.512 1.6319H107.232L112.711 17.2911L118.189 1.6319H121.91L114.205 22.96H111.217L103.512 1.6319ZM101.505 1.6319H105.211L105.885 16.8956V22.96H101.505V1.6319ZM120.211 1.6319H123.932V22.96H119.537V16.8956L120.211 1.6319ZM127.447 15.1964V14.8887C127.447 13.7266 127.613 12.6573 127.945 11.6807C128.277 10.6944 128.76 9.8399 129.395 9.11725C130.03 8.39459 130.811 7.83307 131.739 7.43268C132.666 7.02252 133.731 6.81744 134.932 6.81744C136.133 6.81744 137.203 7.02252 138.14 7.43268C139.078 7.83307 139.864 8.39459 140.498 9.11725C141.143 9.8399 141.631 10.6944 141.963 11.6807C142.295 12.6573 142.461 13.7266 142.461 14.8887V15.1964C142.461 16.3487 142.295 17.418 141.963 18.4044C141.631 19.3809 141.143 20.2354 140.498 20.9678C139.864 21.6905 139.082 22.252 138.155 22.6524C137.227 23.0528 136.163 23.253 134.961 23.253C133.76 23.253 132.691 23.0528 131.753 22.6524C130.826 22.252 130.039 21.6905 129.395 20.9678C128.76 20.2354 128.277 19.3809 127.945 18.4044C127.613 17.418 127.447 16.3487 127.447 15.1964ZM131.665 14.8887V15.1964C131.665 15.8604 131.724 16.4805 131.841 17.0567C131.958 17.6329 132.144 18.1407 132.398 18.5801C132.662 19.0098 133.003 19.3467 133.423 19.5909C133.843 19.835 134.356 19.9571 134.961 19.9571C135.547 19.9571 136.05 19.835 136.47 19.5909C136.89 19.3467 137.227 19.0098 137.481 18.5801C137.735 18.1407 137.92 17.6329 138.038 17.0567C138.164 16.4805 138.228 15.8604 138.228 15.1964V14.8887C138.228 14.2442 138.164 13.6387 138.038 13.0723C137.92 12.4962 137.73 11.9883 137.466 11.5489C137.212 11.0997 136.875 10.7481 136.455 10.4942C136.036 10.2403 135.528 10.1133 134.932 10.1133C134.336 10.1133 133.829 10.2403 133.409 10.4942C132.998 10.7481 132.662 11.0997 132.398 11.5489C132.144 11.9883 131.958 12.4962 131.841 13.0723C131.724 13.6387 131.665 14.2442 131.665 14.8887ZM149.785 10.4942V22.96H145.566V7.11041H149.521L149.785 10.4942ZM149.17 14.4786H148.027C148.027 13.3067 148.178 12.252 148.481 11.3145C148.784 10.3672 149.209 9.56158 149.756 8.89752C150.303 8.22369 150.952 7.711 151.704 7.35944C152.466 6.99811 153.315 6.81744 154.253 6.81744C154.995 6.81744 155.674 6.92487 156.289 7.13971C156.904 7.35455 157.431 7.69635 157.871 8.1651C158.32 8.63385 158.662 9.25397 158.896 10.0255C159.14 10.7969 159.262 11.7393 159.262 12.8526V22.96H155.014V12.838C155.014 12.1348 154.917 11.588 154.721 11.1973C154.526 10.8067 154.238 10.5333 153.857 10.377C153.486 10.211 153.027 10.128 152.48 10.128C151.914 10.128 151.421 10.2403 151.001 10.4649C150.591 10.6895 150.249 11.002 149.975 11.4024C149.712 11.793 149.512 12.252 149.375 12.7794C149.238 13.3067 149.17 13.8731 149.17 14.4786ZM173.105 7.11041H176.928V22.4327C176.928 23.878 176.606 25.1036 175.961 26.1094C175.326 27.1251 174.438 27.8917 173.295 28.4092C172.153 28.9366 170.824 29.2003 169.311 29.2003C168.647 29.2003 167.944 29.1124 167.201 28.9366C166.469 28.7608 165.766 28.4874 165.092 28.1163C164.428 27.7452 163.871 27.2764 163.422 26.71L165.282 24.2198C165.771 24.7862 166.337 25.2256 166.982 25.5381C167.626 25.8604 168.339 26.0215 169.12 26.0215C169.882 26.0215 170.527 25.8799 171.054 25.5967C171.581 25.3233 171.987 24.918 172.27 24.3809C172.553 23.8536 172.695 23.2139 172.695 22.462V10.7725L173.105 7.11041ZM162.441 15.2256V14.918C162.441 13.7071 162.587 12.6085 162.88 11.6221C163.183 10.626 163.608 9.77155 164.154 9.05865C164.711 8.34576 165.385 7.79401 166.176 7.40338C166.967 7.01276 167.861 6.81744 168.857 6.81744C169.911 6.81744 170.795 7.01276 171.508 7.40338C172.221 7.79401 172.807 8.35065 173.266 9.0733C173.725 9.78619 174.081 10.6309 174.335 11.6075C174.599 12.5743 174.804 13.6339 174.95 14.7862V15.46C174.804 16.5635 174.584 17.5889 174.291 18.5362C173.998 19.4835 173.612 20.3135 173.134 21.0264C172.655 21.7296 172.06 22.2764 171.347 22.6671C170.644 23.0577 169.804 23.253 168.827 23.253C167.851 23.253 166.967 23.0528 166.176 22.6524C165.395 22.252 164.726 21.6905 164.169 20.9678C163.612 20.2452 163.183 19.3956 162.88 18.419C162.587 17.4424 162.441 16.378 162.441 15.2256ZM166.659 14.918V15.2256C166.659 15.8799 166.723 16.4903 166.85 17.0567C166.977 17.6231 167.172 18.126 167.436 18.5655C167.709 18.9952 168.046 19.3321 168.446 19.5762C168.857 19.8106 169.34 19.9278 169.897 19.9278C170.668 19.9278 171.298 19.7667 171.786 19.4444C172.275 19.1124 172.641 18.6583 172.885 18.0821C173.129 17.5059 173.271 16.8419 173.31 16.0899V14.171C173.29 13.5557 173.207 13.004 173.061 12.5157C172.914 12.0176 172.709 11.5928 172.445 11.2413C172.182 10.8897 171.84 10.6163 171.42 10.421C171 10.2256 170.502 10.128 169.926 10.128C169.369 10.128 168.886 10.2549 168.476 10.5089C168.075 10.753 167.738 11.0899 167.465 11.5196C167.201 11.9493 167.001 12.4571 166.864 13.043C166.728 13.6192 166.659 14.2442 166.659 14.918ZM180.135 15.1964V14.8887C180.135 13.7266 180.301 12.6573 180.633 11.6807C180.965 10.6944 181.449 9.8399 182.084 9.11725C182.718 8.39459 183.5 7.83307 184.427 7.43268C185.355 7.02252 186.42 6.81744 187.621 6.81744C188.822 6.81744 189.891 7.02252 190.829 7.43268C191.766 7.83307 192.552 8.39459 193.187 9.11725C193.832 9.8399 194.32 10.6944 194.652 11.6807C194.984 12.6573 195.15 13.7266 195.15 14.8887V15.1964C195.15 16.3487 194.984 17.418 194.652 18.4044C194.32 19.3809 193.832 20.2354 193.187 20.9678C192.552 21.6905 191.771 22.252 190.843 22.6524C189.916 23.0528 188.851 23.253 187.65 23.253C186.449 23.253 185.379 23.0528 184.442 22.6524C183.514 22.252 182.728 21.6905 182.084 20.9678C181.449 20.2354 180.965 19.3809 180.633 18.4044C180.301 17.418 180.135 16.3487 180.135 15.1964ZM184.354 14.8887V15.1964C184.354 15.8604 184.413 16.4805 184.53 17.0567C184.647 17.6329 184.833 18.1407 185.087 18.5801C185.35 19.0098 185.692 19.3467 186.112 19.5909C186.532 19.835 187.045 19.9571 187.65 19.9571C188.236 19.9571 188.739 19.835 189.159 19.5909C189.579 19.3467 189.916 19.0098 190.17 18.5801C190.423 18.1407 190.609 17.6329 190.726 17.0567C190.853 16.4805 190.917 15.8604 190.917 15.1964V14.8887C190.917 14.2442 190.853 13.6387 190.726 13.0723C190.609 12.4962 190.419 11.9883 190.155 11.5489C189.901 11.0997 189.564 10.7481 189.144 10.4942C188.724 10.2403 188.216 10.1133 187.621 10.1133C187.025 10.1133 186.517 10.2403 186.097 10.4942C185.687 10.7481 185.35 11.0997 185.087 11.5489C184.833 11.9883 184.647 12.4962 184.53 13.0723C184.413 13.6387 184.354 14.2442 184.354 14.8887ZM202.796 0.460022V22.96H198.562V0.460022H202.796ZM211.335 7.11041V22.96H207.102V7.11041H211.335ZM206.838 2.97955C206.838 2.36432 207.053 1.85651 207.483 1.45612C207.913 1.05573 208.489 0.85553 209.211 0.85553C209.924 0.85553 210.496 1.05573 210.925 1.45612C211.365 1.85651 211.584 2.36432 211.584 2.97955C211.584 3.59479 211.365 4.1026 210.925 4.50299C210.496 4.90338 209.924 5.10358 209.211 5.10358C208.489 5.10358 207.913 4.90338 207.483 4.50299C207.053 4.1026 206.838 3.59479 206.838 2.97955ZM223.976 19.3858V12.3253C223.976 11.8174 223.893 11.3829 223.727 11.0215C223.561 10.6505 223.303 10.3624 222.951 10.1573C222.609 9.95221 222.165 9.84967 221.618 9.84967C221.149 9.84967 220.744 9.93268 220.402 10.0987C220.06 10.2549 219.797 10.4844 219.611 10.7872C219.426 11.0801 219.333 11.4268 219.333 11.8272H215.114C215.114 11.1534 215.27 10.5137 215.583 9.90826C215.895 9.3028 216.349 8.77057 216.945 8.31158C217.541 7.84283 218.249 7.47662 219.069 7.21295C219.899 6.94928 220.827 6.81744 221.852 6.81744C223.083 6.81744 224.177 7.02252 225.134 7.43268C226.091 7.84283 226.843 8.45807 227.389 9.27838C227.946 10.0987 228.224 11.1241 228.224 12.3546V19.1368C228.224 20.0059 228.278 20.7188 228.386 21.2755C228.493 21.8223 228.649 22.3008 228.854 22.711V22.96H224.592C224.387 22.5303 224.23 21.9932 224.123 21.3487C224.025 20.6944 223.976 20.0401 223.976 19.3858ZM224.533 13.3067L224.562 15.6944H222.204C221.647 15.6944 221.164 15.7579 220.754 15.8848C220.344 16.0118 220.007 16.1924 219.743 16.4268C219.479 16.6514 219.284 16.9151 219.157 17.2178C219.04 17.5206 218.981 17.8526 218.981 18.2139C218.981 18.5753 219.064 18.9024 219.23 19.1954C219.396 19.4786 219.636 19.7032 219.948 19.8692C220.261 20.0255 220.627 20.1036 221.047 20.1036C221.681 20.1036 222.233 19.9766 222.702 19.7227C223.171 19.4688 223.532 19.1563 223.786 18.7852C224.05 18.4141 224.186 18.0626 224.196 17.7305L225.309 19.5176C225.153 19.918 224.938 20.3331 224.665 20.7628C224.401 21.1924 224.064 21.5977 223.654 21.9786C223.244 22.3497 222.751 22.6573 222.175 22.9014C221.598 23.1358 220.915 23.253 220.124 23.253C219.118 23.253 218.205 23.0528 217.385 22.6524C216.574 22.2422 215.929 21.6807 215.451 20.9678C214.982 20.2452 214.748 19.4249 214.748 18.5069C214.748 17.6768 214.904 16.9395 215.217 16.295C215.529 15.6505 215.988 15.1085 216.594 14.669C217.209 14.2198 217.975 13.8829 218.893 13.6583C219.811 13.4239 220.876 13.3067 222.087 13.3067H224.533Z" fill="black"/>
</svg>
