<svg width="224" height="35" viewBox="0 0 224 35" fill="none" xmlns="http://www.w3.org/2000/svg">
<path d="M15.9668 26.4619V28H3.96973V26.4619H15.9668ZM4.51172 6.67188V28H2.70996V6.67188H4.51172ZM14.4727 16.2373V17.7754H3.96973V16.2373H14.4727ZM15.8936 6.67188V8.22461H3.96973V6.67188H15.8936ZM20.0684 12.1504L24.3457 18.5518L28.6377 12.1504H30.7178L25.3418 19.9141L30.9375 28H28.8867L24.3604 21.3057L19.8486 28H17.7979L23.3936 19.9141L18.0176 12.1504H20.0684ZM35.7275 15.1973V34.0938H33.9697V12.1504H35.6104L35.7275 15.1973ZM46.7432 19.9287V20.2363C46.7432 21.418 46.6064 22.502 46.333 23.4883C46.0596 24.4746 45.6641 25.3291 45.1465 26.0518C44.6387 26.7646 44.0088 27.3164 43.2568 27.707C42.5049 28.0977 41.6504 28.293 40.6934 28.293C39.7461 28.293 38.9014 28.1465 38.1592 27.8535C37.417 27.5605 36.7773 27.1455 36.2402 26.6084C35.7129 26.0615 35.2881 25.4268 34.9658 24.7041C34.6533 23.9717 34.4336 23.1709 34.3066 22.3018V18.2441C34.4531 17.2871 34.6924 16.418 35.0244 15.6367C35.3564 14.8555 35.7812 14.1816 36.2988 13.6152C36.8262 13.0488 37.4512 12.6143 38.1738 12.3115C38.8965 12.0088 39.7217 11.8574 40.6494 11.8574C41.6162 11.8574 42.4756 12.0479 43.2275 12.4287C43.9893 12.7998 44.6289 13.3418 45.1465 14.0547C45.6738 14.7578 46.0693 15.6074 46.333 16.6035C46.6064 17.5898 46.7432 18.6982 46.7432 19.9287ZM44.9854 20.2363V19.9287C44.9854 19.001 44.8877 18.1416 44.6924 17.3506C44.5068 16.5596 44.2188 15.8711 43.8281 15.2852C43.4473 14.6895 42.959 14.2256 42.3633 13.8936C41.7773 13.5615 41.0791 13.3955 40.2686 13.3955C39.4287 13.3955 38.7109 13.5371 38.1152 13.8203C37.5293 14.0938 37.041 14.46 36.6504 14.9189C36.2598 15.3682 35.9521 15.8613 35.7275 16.3984C35.5029 16.9355 35.3369 17.4629 35.2295 17.9805V22.6533C35.415 23.3955 35.7129 24.084 36.123 24.7188C36.5332 25.3438 37.0801 25.8467 37.7637 26.2275C38.457 26.5986 39.3018 26.7842 40.2979 26.7842C41.0986 26.7842 41.792 26.6182 42.3779 26.2861C42.9639 25.9541 43.4473 25.4902 43.8281 24.8945C44.2188 24.2988 44.5068 23.6055 44.6924 22.8145C44.8877 22.0234 44.9854 21.1641 44.9854 20.2363ZM52.5879 5.5V28H50.8447V5.5H52.5879ZM56.4111 20.3242V19.8408C56.4111 18.6885 56.5771 17.624 56.9092 16.6475C57.2412 15.6709 57.7148 14.8262 58.3301 14.1133C58.9551 13.4004 59.7021 12.8486 60.5713 12.458C61.4404 12.0576 62.4072 11.8574 63.4717 11.8574C64.5459 11.8574 65.5176 12.0576 66.3867 12.458C67.2559 12.8486 68.0029 13.4004 68.6279 14.1133C69.2529 14.8262 69.7314 15.6709 70.0635 16.6475C70.3955 17.624 70.5615 18.6885 70.5615 19.8408V20.3242C70.5615 21.4766 70.3955 22.541 70.0635 23.5176C69.7314 24.4844 69.2529 25.3242 68.6279 26.0371C68.0127 26.75 67.2705 27.3066 66.4014 27.707C65.5322 28.0977 64.5654 28.293 63.501 28.293C62.4268 28.293 61.4551 28.0977 60.5859 27.707C59.7168 27.3066 58.9697 26.75 58.3447 26.0371C57.7197 25.3242 57.2412 24.4844 56.9092 23.5176C56.5771 22.541 56.4111 21.4766 56.4111 20.3242ZM58.1543 19.8408V20.3242C58.1543 21.1934 58.2715 22.0186 58.5059 22.7998C58.7402 23.5713 59.082 24.2598 59.5312 24.8652C59.9805 25.4609 60.5371 25.9297 61.2012 26.2715C61.8652 26.6133 62.6318 26.7842 63.501 26.7842C64.3604 26.7842 65.1172 26.6133 65.7715 26.2715C66.4355 25.9297 66.9922 25.4609 67.4414 24.8652C67.8906 24.2598 68.2275 23.5713 68.4521 22.7998C68.6865 22.0186 68.8037 21.1934 68.8037 20.3242V19.8408C68.8037 18.9814 68.6865 18.166 68.4521 17.3945C68.2275 16.623 67.8857 15.9346 67.4268 15.3291C66.9775 14.7236 66.4209 14.2451 65.7568 13.8936C65.0928 13.542 64.3311 13.3662 63.4717 13.3662C62.6123 13.3662 61.8506 13.542 61.1865 13.8936C60.5322 14.2451 59.9756 14.7236 59.5166 15.3291C59.0674 15.9346 58.7256 16.623 58.4912 17.3945C58.2666 18.166 58.1543 18.9814 58.1543 19.8408ZM75.9375 14.7725V28H74.1943V12.1504H75.8936L75.9375 14.7725ZM81.5479 12.0332L81.5039 13.6445C81.3086 13.6152 81.1182 13.5908 80.9326 13.5713C80.7471 13.5518 80.5469 13.542 80.332 13.542C79.5703 13.542 78.9014 13.6836 78.3252 13.9668C77.7588 14.2402 77.2803 14.626 76.8896 15.124C76.499 15.6123 76.2012 16.1885 75.9961 16.8525C75.791 17.5068 75.6738 18.21 75.6445 18.9619L75 19.2109C75 18.1758 75.1074 17.2139 75.3223 16.3252C75.5371 15.4365 75.8643 14.6602 76.3037 13.9961C76.7529 13.3223 77.3145 12.7998 77.9883 12.4287C78.6719 12.0479 79.4727 11.8574 80.3906 11.8574C80.6152 11.8574 80.835 11.877 81.0498 11.916C81.2744 11.9453 81.4404 11.9844 81.5479 12.0332ZM90.1318 28.293C89.0967 28.293 88.1445 28.1025 87.2754 27.7217C86.416 27.3408 85.6641 26.8037 85.0195 26.1104C84.3848 25.417 83.8916 24.5967 83.54 23.6494C83.1982 22.6924 83.0273 21.6475 83.0273 20.5146V19.8848C83.0273 18.6641 83.208 17.5605 83.5693 16.5742C83.9307 15.5879 84.4287 14.7432 85.0635 14.04C85.6982 13.3369 86.4209 12.7998 87.2314 12.4287C88.0518 12.0479 88.9111 11.8574 89.8096 11.8574C90.8154 11.8574 91.709 12.0381 92.4902 12.3994C93.2715 12.751 93.9258 13.2539 94.4531 13.9082C94.9902 14.5527 95.3955 15.3193 95.6689 16.208C95.9424 17.0869 96.0791 18.0586 96.0791 19.123V20.1924H84.082V18.6982H94.3359V18.4932C94.3164 17.6045 94.1357 16.7744 93.7939 16.0029C93.4619 15.2217 92.9639 14.5869 92.2998 14.0986C91.6357 13.6104 90.8057 13.3662 89.8096 13.3662C89.0674 13.3662 88.3838 13.5225 87.7588 13.835C87.1436 14.1475 86.6113 14.5967 86.1621 15.1826C85.7227 15.7588 85.3809 16.4473 85.1367 17.248C84.9023 18.0391 84.7852 18.918 84.7852 19.8848V20.5146C84.7852 21.3936 84.9121 22.2139 85.166 22.9756C85.4297 23.7275 85.8008 24.3916 86.2793 24.9678C86.7676 25.5439 87.3438 25.9932 88.0078 26.3154C88.6719 26.6377 89.4043 26.7988 90.2051 26.7988C91.1426 26.7988 91.9727 26.6279 92.6953 26.2861C93.418 25.9346 94.0674 25.3828 94.6436 24.6309L95.7422 25.4805C95.4004 25.9883 94.9707 26.457 94.4531 26.8867C93.9453 27.3164 93.335 27.6582 92.6221 27.9121C91.9092 28.166 91.0791 28.293 90.1318 28.293ZM101.147 6.67188H104.868L110.347 22.3311L115.825 6.67188H119.546L111.841 28H108.853L101.147 6.67188ZM99.1406 6.67188H102.847L103.521 21.9355V28H99.1406V6.67188ZM117.847 6.67188H121.567V28H117.173V21.9355L117.847 6.67188ZM124.482 20.2363V19.9287C124.482 18.7666 124.648 17.6973 124.98 16.7207C125.312 15.7344 125.796 14.8799 126.431 14.1572C127.065 13.4346 127.847 12.873 128.774 12.4727C129.702 12.0625 130.767 11.8574 131.968 11.8574C133.169 11.8574 134.238 12.0625 135.176 12.4727C136.113 12.873 136.899 13.4346 137.534 14.1572C138.179 14.8799 138.667 15.7344 138.999 16.7207C139.331 17.6973 139.497 18.7666 139.497 19.9287V20.2363C139.497 21.3887 139.331 22.458 138.999 23.4443C138.667 24.4209 138.179 25.2754 137.534 26.0078C136.899 26.7305 136.118 27.292 135.19 27.6924C134.263 28.0928 133.198 28.293 131.997 28.293C130.796 28.293 129.727 28.0928 128.789 27.6924C127.861 27.292 127.075 26.7305 126.431 26.0078C125.796 25.2754 125.312 24.4209 124.98 23.4443C124.648 22.458 124.482 21.3887 124.482 20.2363ZM128.701 19.9287V20.2363C128.701 20.9004 128.76 21.5205 128.877 22.0967C128.994 22.6729 129.18 23.1807 129.434 23.6201C129.697 24.0498 130.039 24.3867 130.459 24.6309C130.879 24.875 131.392 24.9971 131.997 24.9971C132.583 24.9971 133.086 24.875 133.506 24.6309C133.926 24.3867 134.263 24.0498 134.517 23.6201C134.771 23.1807 134.956 22.6729 135.073 22.0967C135.2 21.5205 135.264 20.9004 135.264 20.2363V19.9287C135.264 19.2842 135.2 18.6787 135.073 18.1123C134.956 17.5361 134.766 17.0283 134.502 16.5889C134.248 16.1396 133.911 15.7881 133.491 15.5342C133.071 15.2803 132.563 15.1533 131.968 15.1533C131.372 15.1533 130.864 15.2803 130.444 15.5342C130.034 15.7881 129.697 16.1396 129.434 16.5889C129.18 17.0283 128.994 17.5361 128.877 18.1123C128.76 18.6787 128.701 19.2842 128.701 19.9287ZM146.221 15.5342V28H142.002V12.1504H145.957L146.221 15.5342ZM145.605 19.5186H144.463C144.463 18.3467 144.614 17.292 144.917 16.3545C145.22 15.4072 145.645 14.6016 146.191 13.9375C146.738 13.2637 147.388 12.751 148.14 12.3994C148.901 12.0381 149.751 11.8574 150.688 11.8574C151.431 11.8574 152.109 11.9648 152.725 12.1797C153.34 12.3945 153.867 12.7363 154.307 13.2051C154.756 13.6738 155.098 14.2939 155.332 15.0654C155.576 15.8369 155.698 16.7793 155.698 17.8926V28H151.45V17.8779C151.45 17.1748 151.353 16.6279 151.157 16.2373C150.962 15.8467 150.674 15.5732 150.293 15.417C149.922 15.251 149.463 15.168 148.916 15.168C148.35 15.168 147.856 15.2803 147.437 15.5049C147.026 15.7295 146.685 16.042 146.411 16.4424C146.147 16.833 145.947 17.292 145.811 17.8193C145.674 18.3467 145.605 18.9131 145.605 19.5186ZM168.94 12.1504H172.764V27.4727C172.764 28.918 172.441 30.1436 171.797 31.1494C171.162 32.165 170.273 32.9316 169.131 33.4492C167.988 33.9766 166.66 34.2402 165.146 34.2402C164.482 34.2402 163.779 34.1523 163.037 33.9766C162.305 33.8008 161.602 33.5273 160.928 33.1562C160.264 32.7852 159.707 32.3164 159.258 31.75L161.118 29.2598C161.606 29.8262 162.173 30.2656 162.817 30.5781C163.462 30.9004 164.175 31.0615 164.956 31.0615C165.718 31.0615 166.362 30.9199 166.89 30.6367C167.417 30.3633 167.822 29.958 168.105 29.4209C168.389 28.8936 168.53 28.2539 168.53 27.502V15.8125L168.94 12.1504ZM158.276 20.2656V19.958C158.276 18.7471 158.423 17.6484 158.716 16.6621C159.019 15.666 159.443 14.8115 159.99 14.0986C160.547 13.3857 161.221 12.834 162.012 12.4434C162.803 12.0527 163.696 11.8574 164.692 11.8574C165.747 11.8574 166.631 12.0527 167.344 12.4434C168.057 12.834 168.643 13.3906 169.102 14.1133C169.561 14.8262 169.917 15.6709 170.171 16.6475C170.435 17.6143 170.64 18.6738 170.786 19.8262V20.5C170.64 21.6035 170.42 22.6289 170.127 23.5762C169.834 24.5234 169.448 25.3535 168.97 26.0664C168.491 26.7695 167.896 27.3164 167.183 27.707C166.479 28.0977 165.64 28.293 164.663 28.293C163.687 28.293 162.803 28.0928 162.012 27.6924C161.23 27.292 160.562 26.7305 160.005 26.0078C159.448 25.2852 159.019 24.4355 158.716 23.459C158.423 22.4824 158.276 21.418 158.276 20.2656ZM162.495 19.958V20.2656C162.495 20.9199 162.559 21.5303 162.686 22.0967C162.812 22.6631 163.008 23.166 163.271 23.6055C163.545 24.0352 163.882 24.3721 164.282 24.6162C164.692 24.8506 165.176 24.9678 165.732 24.9678C166.504 24.9678 167.134 24.8066 167.622 24.4844C168.11 24.1523 168.477 23.6982 168.721 23.1221C168.965 22.5459 169.106 21.8818 169.146 21.1299V19.2109C169.126 18.5957 169.043 18.0439 168.896 17.5557C168.75 17.0576 168.545 16.6328 168.281 16.2812C168.018 15.9297 167.676 15.6562 167.256 15.4609C166.836 15.2656 166.338 15.168 165.762 15.168C165.205 15.168 164.722 15.2949 164.312 15.5488C163.911 15.793 163.574 16.1299 163.301 16.5596C163.037 16.9893 162.837 17.4971 162.7 18.083C162.563 18.6592 162.495 19.2842 162.495 19.958ZM175.371 20.2363V19.9287C175.371 18.7666 175.537 17.6973 175.869 16.7207C176.201 15.7344 176.685 14.8799 177.319 14.1572C177.954 13.4346 178.735 12.873 179.663 12.4727C180.591 12.0625 181.655 11.8574 182.856 11.8574C184.058 11.8574 185.127 12.0625 186.064 12.4727C187.002 12.873 187.788 13.4346 188.423 14.1572C189.067 14.8799 189.556 15.7344 189.888 16.7207C190.22 17.6973 190.386 18.7666 190.386 19.9287V20.2363C190.386 21.3887 190.22 22.458 189.888 23.4443C189.556 24.4209 189.067 25.2754 188.423 26.0078C187.788 26.7305 187.007 27.292 186.079 27.6924C185.151 28.0928 184.087 28.293 182.886 28.293C181.685 28.293 180.615 28.0928 179.678 27.6924C178.75 27.292 177.964 26.7305 177.319 26.0078C176.685 25.2754 176.201 24.4209 175.869 23.4443C175.537 22.458 175.371 21.3887 175.371 20.2363ZM179.59 19.9287V20.2363C179.59 20.9004 179.648 21.5205 179.766 22.0967C179.883 22.6729 180.068 23.1807 180.322 23.6201C180.586 24.0498 180.928 24.3867 181.348 24.6309C181.768 24.875 182.28 24.9971 182.886 24.9971C183.472 24.9971 183.975 24.875 184.395 24.6309C184.814 24.3867 185.151 24.0498 185.405 23.6201C185.659 23.1807 185.845 22.6729 185.962 22.0967C186.089 21.5205 186.152 20.9004 186.152 20.2363V19.9287C186.152 19.2842 186.089 18.6787 185.962 18.1123C185.845 17.5361 185.654 17.0283 185.391 16.5889C185.137 16.1396 184.8 15.7881 184.38 15.5342C183.96 15.2803 183.452 15.1533 182.856 15.1533C182.261 15.1533 181.753 15.2803 181.333 15.5342C180.923 15.7881 180.586 16.1396 180.322 16.5889C180.068 17.0283 179.883 17.5361 179.766 18.1123C179.648 18.6787 179.59 19.2842 179.59 19.9287ZM197.432 5.5V28H193.198V5.5H197.432ZM205.371 12.1504V28H201.138V12.1504H205.371ZM200.874 8.01953C200.874 7.4043 201.089 6.89648 201.519 6.49609C201.948 6.0957 202.524 5.89551 203.247 5.89551C203.96 5.89551 204.531 6.0957 204.961 6.49609C205.4 6.89648 205.62 7.4043 205.62 8.01953C205.62 8.63477 205.4 9.14258 204.961 9.54297C204.531 9.94336 203.96 10.1436 203.247 10.1436C202.524 10.1436 201.948 9.94336 201.519 9.54297C201.089 9.14258 200.874 8.63477 200.874 8.01953ZM217.412 24.4258V17.3652C217.412 16.8574 217.329 16.4229 217.163 16.0615C216.997 15.6904 216.738 15.4023 216.387 15.1973C216.045 14.9922 215.601 14.8896 215.054 14.8896C214.585 14.8896 214.18 14.9727 213.838 15.1387C213.496 15.2949 213.232 15.5244 213.047 15.8271C212.861 16.1201 212.769 16.4668 212.769 16.8672H208.55C208.55 16.1934 208.706 15.5537 209.019 14.9482C209.331 14.3428 209.785 13.8105 210.381 13.3516C210.977 12.8828 211.685 12.5166 212.505 12.2529C213.335 11.9893 214.263 11.8574 215.288 11.8574C216.519 11.8574 217.612 12.0625 218.569 12.4727C219.526 12.8828 220.278 13.498 220.825 14.3184C221.382 15.1387 221.66 16.1641 221.66 17.3945V24.1768C221.66 25.0459 221.714 25.7588 221.821 26.3154C221.929 26.8623 222.085 27.3408 222.29 27.751V28H218.027C217.822 27.5703 217.666 27.0332 217.559 26.3887C217.461 25.7344 217.412 25.0801 217.412 24.4258ZM217.969 18.3467L217.998 20.7344H215.64C215.083 20.7344 214.6 20.7979 214.189 20.9248C213.779 21.0518 213.442 21.2324 213.179 21.4668C212.915 21.6914 212.72 21.9551 212.593 22.2578C212.476 22.5605 212.417 22.8926 212.417 23.2539C212.417 23.6152 212.5 23.9424 212.666 24.2354C212.832 24.5186 213.071 24.7432 213.384 24.9092C213.696 25.0654 214.062 25.1436 214.482 25.1436C215.117 25.1436 215.669 25.0166 216.138 24.7627C216.606 24.5088 216.968 24.1963 217.222 23.8252C217.485 23.4541 217.622 23.1025 217.632 22.7705L218.745 24.5576C218.589 24.958 218.374 25.373 218.101 25.8027C217.837 26.2324 217.5 26.6377 217.09 27.0186C216.68 27.3896 216.187 27.6973 215.61 27.9414C215.034 28.1758 214.351 28.293 213.56 28.293C212.554 28.293 211.641 28.0928 210.82 27.6924C210.01 27.2822 209.365 26.7207 208.887 26.0078C208.418 25.2852 208.184 24.4648 208.184 23.5469C208.184 22.7168 208.34 21.9795 208.652 21.335C208.965 20.6904 209.424 20.1484 210.029 19.709C210.645 19.2598 211.411 18.9229 212.329 18.6982C213.247 18.4639 214.312 18.3467 215.522 18.3467H217.969Z" fill="#F1F1F1"/>
</svg>
