<svg width="602" height="338" viewBox="0 0 602 338" fill="none" xmlns="http://www.w3.org/2000/svg">
<path d="M30.5127 37.916V45H7.05078V37.916H30.5127ZM10.0176 0.921875V45H0.935547V0.921875H10.0176ZM27.4551 18.874V25.7764H7.05078V18.874H27.4551ZM30.4824 0.921875V8.03613H7.05078V0.921875H30.4824ZM43.2881 0.921875L51.583 16.3008L59.8779 0.921875H70.2617L57.4561 22.7793L70.5947 45H60.1201L51.583 29.3184L43.0459 45H32.5107L45.6797 22.7793L32.8438 0.921875H43.2881ZM92.3311 29.2881H81.0996V22.2041H92.3311C94.0667 22.2041 95.4795 21.9215 96.5693 21.3564C97.6592 20.7712 98.4564 19.9639 98.9609 18.9346C99.4655 17.9053 99.7178 16.7448 99.7178 15.4531C99.7178 14.1413 99.4655 12.9202 98.9609 11.79C98.4564 10.6598 97.6592 9.75163 96.5693 9.06543C95.4795 8.37923 94.0667 8.03613 92.3311 8.03613H84.248V45H75.166V0.921875H92.3311C95.7822 0.921875 98.7389 1.54753 101.201 2.79883C103.684 4.02995 105.581 5.73535 106.893 7.91504C108.204 10.0947 108.86 12.5872 108.86 15.3926C108.86 18.2383 108.204 20.7005 106.893 22.7793C105.581 24.8581 103.684 26.4626 101.201 27.5928C98.7389 28.723 95.7822 29.2881 92.3311 29.2881ZM143.463 37.916V45H121.272V37.916H143.463ZM124.209 0.921875V45H115.127V0.921875H124.209ZM182.879 21.9316V24.0205C182.879 27.3708 182.425 30.3779 181.517 33.042C180.608 35.7061 179.327 37.9766 177.672 39.8535C176.017 41.7103 174.039 43.1331 171.738 44.1221C169.458 45.111 166.925 45.6055 164.14 45.6055C161.375 45.6055 158.842 45.111 156.541 44.1221C154.26 43.1331 152.283 41.7103 150.607 39.8535C148.932 37.9766 147.631 35.7061 146.702 33.042C145.794 30.3779 145.34 27.3708 145.34 24.0205V21.9316C145.34 18.5612 145.794 15.554 146.702 12.9102C147.61 10.2461 148.892 7.97559 150.547 6.09863C152.222 4.22168 154.2 2.78874 156.48 1.7998C158.781 0.810872 161.314 0.316406 164.079 0.316406C166.864 0.316406 169.397 0.810872 171.678 1.7998C173.979 2.78874 175.956 4.22168 177.611 6.09863C179.286 7.97559 180.578 10.2461 181.486 12.9102C182.415 15.554 182.879 18.5612 182.879 21.9316ZM173.706 24.0205V21.8711C173.706 19.5299 173.494 17.4714 173.07 15.6953C172.646 13.9193 172.021 12.4258 171.193 11.2148C170.366 10.0039 169.357 9.0957 168.166 8.49023C166.975 7.86458 165.613 7.55176 164.079 7.55176C162.545 7.55176 161.183 7.86458 159.992 8.49023C158.822 9.0957 157.823 10.0039 156.995 11.2148C156.188 12.4258 155.572 13.9193 155.148 15.6953C154.725 17.4714 154.513 19.5299 154.513 21.8711V24.0205C154.513 26.3415 154.725 28.4001 155.148 30.1963C155.572 31.9723 156.198 33.4759 157.025 34.707C157.853 35.918 158.862 36.8363 160.053 37.4619C161.243 38.0876 162.606 38.4004 164.14 38.4004C165.674 38.4004 167.036 38.0876 168.227 37.4619C169.417 36.8363 170.416 35.918 171.224 34.707C172.031 33.4759 172.646 31.9723 173.07 30.1963C173.494 28.4001 173.706 26.3415 173.706 24.0205ZM189.418 0.921875H205.856C209.227 0.921875 212.123 1.42643 214.545 2.43555C216.987 3.44466 218.864 4.93815 220.176 6.91602C221.488 8.89388 222.144 11.3258 222.144 14.2119C222.144 16.5732 221.74 18.6016 220.933 20.2969C220.146 21.972 219.025 23.3747 217.572 24.5049C216.139 25.6149 214.454 26.5029 212.517 27.1689L209.641 28.6826H195.352L195.291 21.5986H205.917C207.511 21.5986 208.833 21.3161 209.883 20.751C210.932 20.1859 211.719 19.3988 212.244 18.3896C212.789 17.3805 213.062 16.21 213.062 14.8779C213.062 13.4652 212.799 12.2441 212.274 11.2148C211.75 10.1855 210.952 9.39844 209.883 8.85352C208.813 8.30859 207.471 8.03613 205.856 8.03613H198.5V45H189.418V0.921875ZM214.061 45L204.01 25.3525L213.606 25.292L223.778 44.5762V45H214.061ZM258.714 37.916V45H235.252V37.916H258.714ZM238.219 0.921875V45H229.137V0.921875H238.219ZM255.656 18.874V25.7764H235.252V18.874H255.656ZM258.684 0.921875V8.03613H235.252V0.921875H258.684ZM5.08301 73.9219H12.7725L24.0947 106.284L35.417 73.9219H43.1064L27.1826 118H21.0068L5.08301 73.9219ZM0.935547 73.9219H8.59473L9.9873 105.467V118H0.935547V73.9219ZM39.5947 73.9219H47.2842V118H38.2021V105.467L39.5947 73.9219ZM91.4531 94.9316V97.0205C91.4531 100.371 90.999 103.378 90.0908 106.042C89.1826 108.706 87.901 110.977 86.2461 112.854C84.5911 114.71 82.6133 116.133 80.3125 117.122C78.0319 118.111 75.499 118.605 72.7139 118.605C69.9489 118.605 67.416 118.111 65.1152 117.122C62.8346 116.133 60.8568 114.71 59.1816 112.854C57.5065 110.977 56.2048 108.706 55.2764 106.042C54.3682 103.378 53.9141 100.371 53.9141 97.0205V94.9316C53.9141 91.5612 54.3682 88.554 55.2764 85.9102C56.1846 83.2461 57.4661 80.9756 59.1211 79.0986C60.7962 77.2217 62.7741 75.7887 65.0547 74.7998C67.3555 73.8109 69.8883 73.3164 72.6533 73.3164C75.4385 73.3164 77.9714 73.8109 80.252 74.7998C82.5527 75.7887 84.5306 77.2217 86.1855 79.0986C87.8607 80.9756 89.1523 83.2461 90.0605 85.9102C90.9889 88.554 91.4531 91.5612 91.4531 94.9316ZM82.2803 97.0205V94.8711C82.2803 92.5299 82.0684 90.4714 81.6445 88.6953C81.2207 86.9193 80.5951 85.4258 79.7676 84.2148C78.9401 83.0039 77.931 82.0957 76.7402 81.4902C75.5495 80.8646 74.1872 80.5518 72.6533 80.5518C71.1195 80.5518 69.7572 80.8646 68.5664 81.4902C67.3958 82.0957 66.3968 83.0039 65.5693 84.2148C64.762 85.4258 64.1465 86.9193 63.7227 88.6953C63.2988 90.4714 63.0869 92.5299 63.0869 94.8711V97.0205C63.0869 99.3415 63.2988 101.4 63.7227 103.196C64.1465 104.972 64.7721 106.476 65.5996 107.707C66.4271 108.918 67.4362 109.836 68.627 110.462C69.8177 111.088 71.18 111.4 72.7139 111.4C74.2477 111.4 75.61 111.088 76.8008 110.462C77.9915 109.836 78.9906 108.918 79.7979 107.707C80.6051 106.476 81.2207 104.972 81.6445 103.196C82.0684 101.4 82.2803 99.3415 82.2803 97.0205ZM133.866 73.9219V118H124.784L107.074 88.4531V118H97.9922V73.9219H107.074L124.814 103.499V73.9219H133.866ZM176.703 94.9619V112.43C176.017 113.257 174.957 114.155 173.524 115.124C172.091 116.073 170.245 116.89 167.984 117.576C165.724 118.262 162.989 118.605 159.78 118.605C156.935 118.605 154.341 118.141 152 117.213C149.659 116.264 147.641 114.882 145.945 113.065C144.27 111.249 142.979 109.029 142.07 106.405C141.162 103.761 140.708 100.744 140.708 97.3535V94.5986C140.708 91.208 141.142 88.1908 142.01 85.5469C142.898 82.903 144.159 80.6729 145.794 78.8564C147.429 77.04 149.376 75.6576 151.637 74.709C153.897 73.7604 156.41 73.2861 159.175 73.2861C163.009 73.2861 166.158 73.9118 168.62 75.1631C171.082 76.3942 172.959 78.1097 174.251 80.3096C175.563 82.4893 176.37 84.9919 176.673 87.8174H167.863C167.641 86.3239 167.217 85.0221 166.592 83.9121C165.966 82.8021 165.068 81.9342 163.897 81.3086C162.747 80.6829 161.254 80.3701 159.417 80.3701C157.903 80.3701 156.551 80.6829 155.36 81.3086C154.19 81.9141 153.201 82.8122 152.394 84.0029C151.586 85.1937 150.971 86.667 150.547 88.4229C150.123 90.1787 149.911 92.2171 149.911 94.5381V97.3535C149.911 99.6543 150.133 101.693 150.577 103.469C151.021 105.225 151.677 106.708 152.545 107.919C153.433 109.11 154.523 110.008 155.814 110.613C157.106 111.219 158.61 111.521 160.325 111.521C161.758 111.521 162.949 111.4 163.897 111.158C164.866 110.916 165.643 110.623 166.229 110.28C166.834 109.917 167.298 109.574 167.621 109.251V101.44H159.326V94.9619H176.703ZM220.236 94.9316V97.0205C220.236 100.371 219.782 103.378 218.874 106.042C217.966 108.706 216.684 110.977 215.029 112.854C213.374 114.71 211.396 116.133 209.096 117.122C206.815 118.111 204.282 118.605 201.497 118.605C198.732 118.605 196.199 118.111 193.898 117.122C191.618 116.133 189.64 114.71 187.965 112.854C186.29 110.977 184.988 108.706 184.06 106.042C183.151 103.378 182.697 100.371 182.697 97.0205V94.9316C182.697 91.5612 183.151 88.554 184.06 85.9102C184.968 83.2461 186.249 80.9756 187.904 79.0986C189.579 77.2217 191.557 75.7887 193.838 74.7998C196.139 73.8109 198.672 73.3164 201.437 73.3164C204.222 73.3164 206.755 73.8109 209.035 74.7998C211.336 75.7887 213.314 77.2217 214.969 79.0986C216.644 80.9756 217.936 83.2461 218.844 85.9102C219.772 88.554 220.236 91.5612 220.236 94.9316ZM211.063 97.0205V94.8711C211.063 92.5299 210.852 90.4714 210.428 88.6953C210.004 86.9193 209.378 85.4258 208.551 84.2148C207.723 83.0039 206.714 82.0957 205.523 81.4902C204.333 80.8646 202.97 80.5518 201.437 80.5518C199.903 80.5518 198.54 80.8646 197.35 81.4902C196.179 82.0957 195.18 83.0039 194.353 84.2148C193.545 85.4258 192.93 86.9193 192.506 88.6953C192.082 90.4714 191.87 92.5299 191.87 94.8711V97.0205C191.87 99.3415 192.082 101.4 192.506 103.196C192.93 104.972 193.555 106.476 194.383 107.707C195.21 108.918 196.219 109.836 197.41 110.462C198.601 111.088 199.963 111.4 201.497 111.4C203.031 111.4 204.393 111.088 205.584 110.462C206.775 109.836 207.774 108.918 208.581 107.707C209.388 106.476 210.004 104.972 210.428 103.196C210.852 101.4 211.063 99.3415 211.063 97.0205ZM255.111 110.916V118H232.921V110.916H255.111ZM235.857 73.9219V118H226.775V73.9219H235.857ZM269.976 73.9219V118H260.924V73.9219H269.976ZM296.949 81.46L284.961 118H275.304L291.682 73.9219H297.827L296.949 81.46ZM306.909 118L294.891 81.46L293.922 73.9219H300.128L316.597 118H306.909ZM306.364 101.592V108.706H283.084V101.592H306.364ZM6.32422 146.922V191H2.60059V146.922H6.32422ZM26.8496 167.205V170.414H5.08301V167.205H26.8496ZM29.9072 146.922V150.131H5.08301V146.922H29.9072ZM37.3848 146.922H51.7041C54.7516 146.922 57.3955 147.416 59.6357 148.405C61.876 149.394 63.6016 150.857 64.8125 152.795C66.0436 154.712 66.6592 157.074 66.6592 159.879C66.6592 161.958 66.2152 163.845 65.3271 165.54C64.4593 167.235 63.2585 168.658 61.7246 169.809C60.1908 170.939 58.4147 171.716 56.3965 172.14L55.0947 172.624H39.8066L39.7461 169.445H52.5518C54.8525 169.445 56.7699 169.001 58.3037 168.113C59.8376 167.225 60.988 166.055 61.7549 164.602C62.542 163.128 62.9355 161.554 62.9355 159.879C62.9355 157.881 62.5016 156.155 61.6338 154.702C60.7861 153.229 59.5247 152.099 57.8496 151.312C56.1745 150.524 54.126 150.131 51.7041 150.131H41.1084V191H37.3848V146.922ZM64.6006 191L53.1875 171.292L57.1836 171.262L68.5664 190.606V191H64.6006ZM109.436 166.6V171.322C109.436 174.41 109.032 177.205 108.225 179.708C107.438 182.19 106.287 184.32 104.773 186.096C103.28 187.872 101.484 189.234 99.3848 190.183C97.2858 191.131 94.9245 191.605 92.3008 191.605C89.7376 191.605 87.3965 191.131 85.2773 190.183C83.1784 189.234 81.3721 187.872 79.8584 186.096C78.3447 184.32 77.1742 182.19 76.3467 179.708C75.5192 177.205 75.1055 174.41 75.1055 171.322V166.6C75.1055 163.512 75.5091 160.727 76.3164 158.244C77.1439 155.742 78.3145 153.602 79.8281 151.826C81.3418 150.05 83.1481 148.688 85.2471 147.739C87.346 146.791 89.6771 146.316 92.2402 146.316C94.8639 146.316 97.2253 146.791 99.3242 147.739C101.423 148.688 103.229 150.05 104.743 151.826C106.257 153.602 107.417 155.742 108.225 158.244C109.032 160.727 109.436 163.512 109.436 166.6ZM105.742 171.322V166.539C105.742 163.936 105.439 161.594 104.834 159.516C104.249 157.437 103.371 155.661 102.2 154.188C101.05 152.714 99.637 151.584 97.9619 150.797C96.2868 150.01 94.3796 149.616 92.2402 149.616C90.1615 149.616 88.2946 150.01 86.6396 150.797C84.9847 151.584 83.5719 152.714 82.4014 154.188C81.251 155.661 80.363 157.437 79.7373 159.516C79.1318 161.594 78.8291 163.936 78.8291 166.539V171.322C78.8291 173.946 79.1318 176.307 79.7373 178.406C80.363 180.485 81.2611 182.271 82.4316 183.765C83.6022 185.238 85.015 186.368 86.6699 187.155C88.3451 187.942 90.222 188.336 92.3008 188.336C94.4603 188.336 96.3675 187.942 98.0225 187.155C99.6774 186.368 101.08 185.238 102.23 183.765C103.381 182.271 104.249 180.485 104.834 178.406C105.439 176.307 105.742 173.946 105.742 171.322ZM120.001 146.922H123.755L140.042 185.732L156.359 146.922H160.083L141.465 191H138.619L120.001 146.922ZM118.851 146.922H122.15L122.544 171.746V191H118.851V146.922ZM157.994 146.922H161.294V191H157.57V171.746L157.994 146.922ZM201.194 146.922V191H197.501V146.922H201.194ZM216.301 146.922V150.131H182.425V146.922H216.301ZM253.113 166.69V169.869H226.321V166.69H253.113ZM227.199 146.922V191H223.476V146.922H227.199ZM256.11 146.922V191H252.387V146.922H256.11ZM294.77 187.821V191H269.976V187.821H294.77ZM271.096 146.922V191H267.372V146.922H271.096ZM291.682 166.69V169.869H269.976V166.69H291.682ZM294.618 146.922V150.131H269.976V146.922H294.618ZM349.595 170.051V185.732C349.09 186.479 348.222 187.307 346.991 188.215C345.76 189.123 344.105 189.92 342.026 190.606C339.948 191.272 337.364 191.605 334.276 191.605C331.693 191.605 329.322 191.141 327.162 190.213C325.003 189.285 323.126 187.942 321.531 186.187C319.957 184.41 318.736 182.281 317.868 179.799C317.021 177.316 316.597 174.531 316.597 171.443V166.115C316.597 163.088 316.99 160.363 317.777 157.941C318.564 155.499 319.705 153.41 321.198 151.675C322.692 149.939 324.488 148.617 326.587 147.709C328.706 146.781 331.077 146.316 333.701 146.316C336.971 146.316 339.726 146.882 341.966 148.012C344.206 149.142 345.952 150.696 347.203 152.674C348.475 154.632 349.262 156.852 349.564 159.334H345.841C345.558 157.578 344.973 155.964 344.085 154.49C343.197 152.997 341.905 151.796 340.21 150.888C338.535 149.979 336.365 149.525 333.701 149.525C331.562 149.525 329.655 149.919 327.979 150.706C326.325 151.493 324.932 152.613 323.802 154.066C322.672 155.52 321.814 157.265 321.229 159.304C320.643 161.322 320.351 163.572 320.351 166.055V171.443C320.351 174.027 320.674 176.358 321.319 178.437C321.985 180.515 322.934 182.301 324.165 183.795C325.396 185.288 326.869 186.439 328.585 187.246C330.3 188.033 332.208 188.427 334.307 188.427C336.547 188.427 338.454 188.215 340.028 187.791C341.603 187.367 342.864 186.863 343.812 186.277C344.781 185.672 345.478 185.107 345.901 184.582V173.229H334.064V170.051H349.595ZM392.795 166.6V171.322C392.795 174.41 392.391 177.205 391.584 179.708C390.797 182.19 389.646 184.32 388.133 186.096C386.639 187.872 384.843 189.234 382.744 190.183C380.645 191.131 378.284 191.605 375.66 191.605C373.097 191.605 370.756 191.131 368.637 190.183C366.538 189.234 364.731 187.872 363.218 186.096C361.704 184.32 360.534 182.19 359.706 179.708C358.879 177.205 358.465 174.41 358.465 171.322V166.6C358.465 163.512 358.868 160.727 359.676 158.244C360.503 155.742 361.674 153.602 363.188 151.826C364.701 150.05 366.507 148.688 368.606 147.739C370.705 146.791 373.036 146.316 375.6 146.316C378.223 146.316 380.585 146.791 382.684 147.739C384.783 148.688 386.589 150.05 388.103 151.826C389.616 153.602 390.777 155.742 391.584 158.244C392.391 160.727 392.795 163.512 392.795 166.6ZM389.102 171.322V166.539C389.102 163.936 388.799 161.594 388.193 159.516C387.608 157.437 386.73 155.661 385.56 154.188C384.409 152.714 382.996 151.584 381.321 150.797C379.646 150.01 377.739 149.616 375.6 149.616C373.521 149.616 371.654 150.01 369.999 150.797C368.344 151.584 366.931 152.714 365.761 154.188C364.61 155.661 363.722 157.437 363.097 159.516C362.491 161.594 362.188 163.936 362.188 166.539V171.322C362.188 173.946 362.491 176.307 363.097 178.406C363.722 180.485 364.62 182.271 365.791 183.765C366.962 185.238 368.374 186.368 370.029 187.155C371.704 187.942 373.581 188.336 375.66 188.336C377.82 188.336 379.727 187.942 381.382 187.155C383.037 186.368 384.439 185.238 385.59 183.765C386.74 182.271 387.608 180.485 388.193 178.406C388.799 176.307 389.102 173.946 389.102 171.322ZM417.377 169.809H404.965L404.904 166.66H415.591C417.771 166.66 419.627 166.347 421.161 165.722C422.695 165.096 423.855 164.168 424.643 162.937C425.45 161.685 425.854 160.151 425.854 158.335C425.854 156.478 425.46 154.944 424.673 153.733C423.886 152.502 422.705 151.594 421.131 151.009C419.557 150.424 417.579 150.131 415.197 150.131H405.934V191H402.21V146.922H415.197C417.438 146.922 419.446 147.144 421.222 147.588C422.998 148.032 424.511 148.728 425.763 149.677C427.014 150.625 427.963 151.826 428.608 153.279C429.274 154.712 429.607 156.428 429.607 158.426C429.607 160.242 429.204 161.887 428.396 163.36C427.589 164.813 426.449 166.004 424.976 166.933C423.522 167.841 421.777 168.406 419.738 168.628L417.377 169.809ZM417.104 191H403.784L405.691 187.821H417.104C419.284 187.821 421.141 187.458 422.675 186.731C424.229 185.985 425.42 184.925 426.247 183.553C427.075 182.18 427.488 180.546 427.488 178.648C427.488 176.973 427.125 175.47 426.398 174.138C425.672 172.806 424.562 171.756 423.068 170.989C421.575 170.202 419.678 169.809 417.377 169.809H409.657L409.718 166.66H420.646L421.312 167.78C423.29 167.982 425.016 168.598 426.489 169.627C427.983 170.636 429.133 171.918 429.94 173.472C430.768 175.026 431.182 176.731 431.182 178.588C431.182 181.252 430.586 183.512 429.396 185.369C428.225 187.206 426.58 188.608 424.461 189.577C422.362 190.526 419.91 191 417.104 191ZM444.774 146.922V191H441.051V146.922H444.774ZM14.6494 264H4.65918L4.71973 260.821H14.6494C17.818 260.821 20.5426 260.115 22.8232 258.702C25.124 257.269 26.9001 255.291 28.1514 252.769C29.4027 250.246 30.0283 247.319 30.0283 243.989V239.872C30.0283 237.329 29.665 235.028 28.9385 232.97C28.2321 230.911 27.2129 229.155 25.8809 227.702C24.5488 226.229 22.9544 225.099 21.0977 224.312C19.2611 223.524 17.2025 223.131 14.9219 223.131H4.47754V219.922H14.9219C17.6667 219.922 20.1794 220.396 22.46 221.345C24.7607 222.273 26.7487 223.625 28.4238 225.401C30.1191 227.157 31.4209 229.266 32.3291 231.729C33.2575 234.191 33.7217 236.936 33.7217 239.963V243.989C33.7217 247.017 33.2575 249.761 32.3291 252.224C31.4209 254.686 30.1191 256.795 28.4238 258.551C26.7285 260.307 24.7204 261.659 22.3994 262.607C20.0785 263.536 17.4951 264 14.6494 264ZM6.32422 219.922V264H2.60059V219.922H6.32422ZM70.625 260.821V264H45.8311V260.821H70.625ZM46.9512 219.922V264H43.2275V219.922H46.9512ZM67.5371 239.69V242.869H45.8311V239.69H67.5371ZM70.4736 219.922V223.131H45.8311V219.922H70.4736ZM103.472 253.162C103.472 251.951 103.27 250.871 102.866 249.923C102.463 248.974 101.797 248.127 100.868 247.38C99.96 246.613 98.7288 245.907 97.1748 245.261C95.641 244.595 93.7236 243.939 91.4229 243.293C89.223 242.667 87.235 241.981 85.459 241.234C83.6829 240.488 82.1592 239.63 80.8877 238.661C79.6364 237.692 78.6777 236.562 78.0117 235.271C77.3457 233.959 77.0127 232.435 77.0127 230.699C77.0127 229.004 77.376 227.46 78.1025 226.067C78.8291 224.675 79.8483 223.474 81.1602 222.465C82.4922 221.456 84.0563 220.679 85.8525 220.134C87.6689 219.589 89.6569 219.316 91.8164 219.316C94.9043 219.316 97.5684 219.902 99.8086 221.072C102.069 222.243 103.815 223.827 105.046 225.825C106.297 227.803 106.923 230.023 106.923 232.485H103.199C103.199 230.568 102.745 228.863 101.837 227.369C100.949 225.855 99.6572 224.675 97.9619 223.827C96.2868 222.959 94.2383 222.525 91.8164 222.525C89.3945 222.525 87.3561 222.899 85.7012 223.646C84.0664 224.372 82.8252 225.351 81.9775 226.582C81.1501 227.793 80.7363 229.145 80.7363 230.639C80.7363 231.688 80.9382 232.657 81.3418 233.545C81.7454 234.413 82.4014 235.23 83.3096 235.997C84.238 236.744 85.459 237.45 86.9727 238.116C88.4863 238.762 90.3532 239.378 92.5732 239.963C94.9144 240.609 96.9932 241.325 98.8096 242.112C100.626 242.899 102.16 243.808 103.411 244.837C104.662 245.846 105.611 247.027 106.257 248.379C106.903 249.731 107.226 251.305 107.226 253.102C107.226 254.898 106.842 256.512 106.075 257.945C105.328 259.358 104.269 260.559 102.896 261.548C101.544 262.537 99.9398 263.294 98.083 263.818C96.2464 264.343 94.2383 264.605 92.0586 264.605C90.1009 264.605 88.1533 264.353 86.2158 263.849C84.2783 263.344 82.5023 262.567 80.8877 261.518C79.2933 260.448 78.0117 259.076 77.043 257.4C76.0944 255.725 75.6201 253.727 75.6201 251.406H79.3135C79.3135 253.263 79.6868 254.827 80.4336 256.099C81.1803 257.37 82.1693 258.399 83.4004 259.187C84.6517 259.974 86.0241 260.549 87.5176 260.912C89.0312 261.255 90.5449 261.427 92.0586 261.427C94.3796 261.427 96.3877 261.084 98.083 260.397C99.7985 259.711 101.12 258.753 102.049 257.521C102.997 256.27 103.472 254.817 103.472 253.162ZM142.676 260.821V264H117.882V260.821H142.676ZM119.002 219.922V264H115.278V219.922H119.002ZM139.588 239.69V242.869H117.882V239.69H139.588ZM142.524 219.922V223.131H117.882V219.922H142.524ZM150.486 219.922H164.806C167.853 219.922 170.497 220.416 172.737 221.405C174.978 222.394 176.703 223.857 177.914 225.795C179.145 227.712 179.761 230.074 179.761 232.879C179.761 234.958 179.317 236.845 178.429 238.54C177.561 240.235 176.36 241.658 174.826 242.809C173.292 243.939 171.516 244.716 169.498 245.14L168.196 245.624H152.908L152.848 242.445H165.653C167.954 242.445 169.871 242.001 171.405 241.113C172.939 240.225 174.09 239.055 174.856 237.602C175.644 236.128 176.037 234.554 176.037 232.879C176.037 230.881 175.603 229.155 174.735 227.702C173.888 226.229 172.626 225.099 170.951 224.312C169.276 223.524 167.228 223.131 164.806 223.131H154.21V264H150.486V219.922ZM177.702 264L166.289 244.292L170.285 244.262L181.668 263.606V264H177.702ZM202.345 219.922V264H198.651V219.922H202.345ZM217.451 219.922V223.131H183.575V219.922H217.451ZM252.114 219.922V264H248.421V219.922H252.114ZM267.221 219.922V223.131H233.345V219.922H267.221ZM306.092 239.6V244.322C306.092 247.41 305.688 250.205 304.881 252.708C304.094 255.19 302.943 257.32 301.43 259.096C299.936 260.872 298.14 262.234 296.041 263.183C293.942 264.131 291.581 264.605 288.957 264.605C286.394 264.605 284.053 264.131 281.934 263.183C279.835 262.234 278.028 260.872 276.515 259.096C275.001 257.32 273.83 255.19 273.003 252.708C272.175 250.205 271.762 247.41 271.762 244.322V239.6C271.762 236.512 272.165 233.727 272.973 231.244C273.8 228.742 274.971 226.602 276.484 224.826C277.998 223.05 279.804 221.688 281.903 220.739C284.002 219.791 286.333 219.316 288.896 219.316C291.52 219.316 293.882 219.791 295.98 220.739C298.079 221.688 299.886 223.05 301.399 224.826C302.913 226.602 304.074 228.742 304.881 231.244C305.688 233.727 306.092 236.512 306.092 239.6ZM302.398 244.322V239.539C302.398 236.936 302.096 234.594 301.49 232.516C300.905 230.437 300.027 228.661 298.856 227.188C297.706 225.714 296.293 224.584 294.618 223.797C292.943 223.01 291.036 222.616 288.896 222.616C286.818 222.616 284.951 223.01 283.296 223.797C281.641 224.584 280.228 225.714 279.058 227.188C277.907 228.661 277.019 230.437 276.394 232.516C275.788 234.594 275.485 236.936 275.485 239.539V244.322C275.485 246.946 275.788 249.307 276.394 251.406C277.019 253.485 277.917 255.271 279.088 256.765C280.258 258.238 281.671 259.368 283.326 260.155C285.001 260.942 286.878 261.336 288.957 261.336C291.117 261.336 293.024 260.942 294.679 260.155C296.334 259.368 297.736 258.238 298.887 256.765C300.037 255.271 300.905 253.485 301.49 251.406C302.096 249.307 302.398 246.946 302.398 244.322ZM344.206 219.922V264H340.513V219.922H344.206ZM359.312 219.922V223.131H325.437V219.922H359.312ZM396.125 239.69V242.869H369.333V239.69H396.125ZM370.211 219.922V264H366.487V219.922H370.211ZM399.122 219.922V264H395.398V219.922H399.122ZM437.781 260.821V264H412.987V260.821H437.781ZM414.107 219.922V264H410.384V219.922H414.107ZM434.693 239.69V242.869H412.987V239.69H434.693ZM437.63 219.922V223.131H412.987V219.922H437.63ZM475.29 222.556L460.032 264H456.157L472.808 219.922H475.502L475.29 222.556ZM489.155 264L473.867 222.556L473.655 219.922H476.35L493.03 264H489.155ZM486.431 248.439V251.648H463.029V248.439H486.431ZM525.06 260.821V264H502.203V260.821H525.06ZM503.293 219.922V264H499.569V219.922H503.293ZM538.683 219.922V264H534.989V219.922H538.683ZM553.789 219.922V223.131H519.913V219.922H553.789ZM573.013 222.556L557.755 264H553.88L570.53 219.922H573.225L573.013 222.556ZM586.878 264L571.59 222.556L571.378 219.922H574.072L590.753 264H586.878ZM584.153 248.439V251.648H560.752V248.439H584.153ZM601.833 219.922V264H598.109V219.922H601.833ZM3.75098 292.922H7.50488L23.792 331.732L40.1094 292.922H43.833L25.2148 337H22.3691L3.75098 292.922ZM2.60059 292.922H5.90039L6.29395 317.746V337H2.60059V292.922ZM41.7441 292.922H45.0439V337H41.3203V317.746L41.7441 292.922ZM88.7891 312.6V317.322C88.7891 320.41 88.3854 323.205 87.5781 325.708C86.791 328.19 85.6406 330.32 84.127 332.096C82.6335 333.872 80.8372 335.234 78.7383 336.183C76.6393 337.131 74.278 337.605 71.6543 337.605C69.0911 337.605 66.75 337.131 64.6309 336.183C62.5319 335.234 60.7256 333.872 59.2119 332.096C57.6982 330.32 56.5277 328.19 55.7002 325.708C54.8727 323.205 54.459 320.41 54.459 317.322V312.6C54.459 309.512 54.8626 306.727 55.6699 304.244C56.4974 301.742 57.668 299.602 59.1816 297.826C60.6953 296.05 62.5016 294.688 64.6006 293.739C66.6995 292.791 69.0306 292.316 71.5938 292.316C74.2174 292.316 76.5788 292.791 78.6777 293.739C80.7767 294.688 82.583 296.05 84.0967 297.826C85.6104 299.602 86.7708 301.742 87.5781 304.244C88.3854 306.727 88.7891 309.512 88.7891 312.6ZM85.0957 317.322V312.539C85.0957 309.936 84.793 307.594 84.1875 305.516C83.6022 303.437 82.7243 301.661 81.5537 300.188C80.4033 298.714 78.9906 297.584 77.3154 296.797C75.6403 296.01 73.7331 295.616 71.5938 295.616C69.515 295.616 67.6481 296.01 65.9932 296.797C64.3382 297.584 62.9255 298.714 61.7549 300.188C60.6045 301.661 59.7165 303.437 59.0908 305.516C58.4854 307.594 58.1826 309.936 58.1826 312.539V317.322C58.1826 319.946 58.4854 322.307 59.0908 324.406C59.7165 326.485 60.6146 328.271 61.7852 329.765C62.9557 331.238 64.3685 332.368 66.0234 333.155C67.6986 333.942 69.5755 334.336 71.6543 334.336C73.8138 334.336 75.721 333.942 77.376 333.155C79.0309 332.368 80.4336 331.238 81.584 329.765C82.7344 328.271 83.6022 326.485 84.1875 324.406C84.793 322.307 85.0957 319.946 85.0957 317.322ZM124.814 292.922H128.538V322.771C128.538 326.081 127.842 328.836 126.449 331.036C125.057 333.236 123.18 334.881 120.818 335.971C118.477 337.061 115.884 337.605 113.038 337.605C110.112 337.605 107.478 337.061 105.137 335.971C102.796 334.881 100.939 333.236 99.5664 331.036C98.2142 328.836 97.5381 326.081 97.5381 322.771V292.922H101.231V322.771C101.231 325.335 101.736 327.484 102.745 329.22C103.754 330.955 105.147 332.257 106.923 333.125C108.699 333.993 110.737 334.427 113.038 334.427C115.319 334.427 117.347 333.993 119.123 333.125C120.899 332.257 122.292 330.955 123.301 329.22C124.31 327.484 124.814 325.335 124.814 322.771V292.922ZM171.829 292.922V337H168.075L142.736 299.34V337H139.013V292.922H142.736L168.136 330.582V292.922H171.829ZM196.956 292.922V337H193.263V292.922H196.956ZM212.062 292.922V296.131H178.187V292.922H212.062ZM231.286 295.556L216.028 337H212.153L228.804 292.922H231.498L231.286 295.556ZM245.151 337L229.863 295.556L229.651 292.922H232.346L249.026 337H245.151ZM242.427 321.439V324.648H219.025V321.439H242.427ZM260.106 292.922V337H256.383V292.922H260.106ZM304.911 292.922V337H301.157L275.818 299.34V337H272.095V292.922H275.818L301.218 330.582V292.922H304.911ZM341.118 326.162C341.118 324.951 340.916 323.871 340.513 322.923C340.109 321.974 339.443 321.127 338.515 320.38C337.606 319.613 336.375 318.907 334.821 318.261C333.287 317.595 331.37 316.939 329.069 316.293C326.869 315.667 324.882 314.981 323.105 314.234C321.329 313.488 319.806 312.63 318.534 311.661C317.283 310.692 316.324 309.562 315.658 308.271C314.992 306.959 314.659 305.435 314.659 303.699C314.659 302.004 315.022 300.46 315.749 299.067C316.476 297.675 317.495 296.474 318.807 295.465C320.139 294.456 321.703 293.679 323.499 293.134C325.315 292.589 327.303 292.316 329.463 292.316C332.551 292.316 335.215 292.902 337.455 294.072C339.715 295.243 341.461 296.827 342.692 298.825C343.944 300.803 344.569 303.023 344.569 305.485H340.846C340.846 303.568 340.392 301.863 339.483 300.369C338.595 298.855 337.304 297.675 335.608 296.827C333.933 295.959 331.885 295.525 329.463 295.525C327.041 295.525 325.003 295.899 323.348 296.646C321.713 297.372 320.472 298.351 319.624 299.582C318.797 300.793 318.383 302.145 318.383 303.639C318.383 304.688 318.585 305.657 318.988 306.545C319.392 307.413 320.048 308.23 320.956 308.997C321.884 309.744 323.105 310.45 324.619 311.116C326.133 311.762 328 312.378 330.22 312.963C332.561 313.609 334.64 314.325 336.456 315.112C338.272 315.899 339.806 316.808 341.058 317.837C342.309 318.846 343.257 320.027 343.903 321.379C344.549 322.731 344.872 324.305 344.872 326.102C344.872 327.898 344.489 329.512 343.722 330.945C342.975 332.358 341.915 333.559 340.543 334.548C339.191 335.537 337.586 336.294 335.729 336.818C333.893 337.343 331.885 337.605 329.705 337.605C327.747 337.605 325.8 337.353 323.862 336.849C321.925 336.344 320.149 335.567 318.534 334.518C316.94 333.448 315.658 332.076 314.689 330.4C313.741 328.725 313.267 326.727 313.267 324.406H316.96C316.96 326.263 317.333 327.827 318.08 329.099C318.827 330.37 319.816 331.399 321.047 332.187C322.298 332.974 323.671 333.549 325.164 333.912C326.678 334.255 328.191 334.427 329.705 334.427C332.026 334.427 334.034 334.084 335.729 333.397C337.445 332.711 338.767 331.753 339.695 330.521C340.644 329.27 341.118 327.817 341.118 326.162ZM351.744 334.79C351.744 334.084 351.966 333.488 352.41 333.004C352.874 332.499 353.5 332.247 354.287 332.247C355.094 332.247 355.73 332.489 356.194 332.974C356.659 333.458 356.891 334.063 356.891 334.79C356.891 335.476 356.659 336.062 356.194 336.546C355.73 337.03 355.094 337.272 354.287 337.272C353.5 337.272 352.874 337.03 352.41 336.546C351.966 336.062 351.744 335.476 351.744 334.79Z" fill="#F1F1F1"/>
</svg>
